<svg width="70" height="32" viewBox="0 0 70 32" fill="none" xmlns="http://www.w3.org/2000/svg">
<path d="M64.0244 19.4375V21C64.0244 22.3783 63.2584 23.5 62.3171 23.5C61.3758 23.5 60.6098 22.3783 60.6098 21V16C60.6098 14.6217 61.3758 13.5 62.3171 13.5C63.2584 13.5 64.0244 14.6217 64.0244 16V19.4375ZM58.9024 16V21C58.9024 23.7567 60.4345 26 62.3171 26C62.9704 26 63.5793 25.725 64.0989 25.2567C64.1783 25.5183 64.3166 25.7321 64.4907 25.8623C64.6648 25.9924 64.8642 26.0311 65.0555 25.9717C65.2467 25.9124 65.4183 25.7586 65.5414 25.5362C65.6645 25.3138 65.7317 25.0363 65.7317 24.75V16C65.7317 13.2433 64.1997 11 62.3171 11C60.4345 11 58.9024 13.2433 58.9024 16ZM68.2927 16V24.75C68.2927 25.0815 68.3826 25.3995 68.5427 25.6339C68.7028 25.8683 68.9199 26 69.1463 26C69.3727 26 69.5899 25.8683 69.75 25.6339C69.9101 25.3995 70 25.0815 70 24.75V16C70 15.6685 69.9101 15.3505 69.75 15.1161C69.5899 14.8817 69.3727 14.75 69.1463 14.75C68.9199 14.75 68.7028 14.8817 68.5427 15.1161C68.3826 15.3505 68.2927 15.6685 68.2927 16ZM44.3902 17.25H40.9756V16C40.9756 14.6217 41.7416 13.5 42.6829 13.5C43.6242 13.5 44.3902 14.6217 44.3902 16V17.25ZM39.2683 16V21C39.2683 23.7567 40.8003 26 42.6829 26H45.2439C45.4703 26 45.6874 25.8683 45.8475 25.6339C46.0076 25.3995 46.0976 25.0815 46.0976 24.75C46.0976 24.4185 46.0076 24.1005 45.8475 23.8661C45.6874 23.6317 45.4703 23.5 45.2439 23.5H42.6829C41.7416 23.5 40.9756 22.3783 40.9756 21V19.75H45.2439C45.4703 19.75 45.6874 19.6183 45.8475 19.3839C46.0076 19.1495 46.0976 18.8315 46.0976 18.5V16C46.0976 13.2433 44.5655 11 42.6829 11C40.8003 11 39.2683 13.2433 39.2683 16ZM26.4634 7.25V24.75C26.4634 25.0815 26.5534 25.3995 26.7134 25.6339C26.8735 25.8683 27.0907 26 27.3171 26C27.5435 26 27.7606 25.8683 27.9207 25.6339C28.0808 25.3995 28.1707 25.0815 28.1707 24.75V7.25C28.1707 6.91848 28.0808 6.60054 27.9207 6.36612C27.7606 6.1317 27.5435 6 27.3171 6C27.0907 6 26.8735 6.1317 26.7134 6.36612C26.5534 6.60054 26.4634 6.91848 26.4634 7.25ZM30.7317 11V21C30.7317 23.7567 32.2637 26 34.1463 26C36.0289 26 37.561 23.7567 37.561 21V18.5C37.561 18.1685 37.471 17.8505 37.3109 17.6161C37.1509 17.3817 36.9337 17.25 36.7073 17.25H35C34.7736 17.25 34.5565 17.3817 34.3964 17.6161C34.2363 17.8505 34.1463 18.1685 34.1463 18.5C34.1463 18.8315 34.2363 19.1495 34.3964 19.3839C34.5565 19.6183 34.7736 19.75 35 19.75H35.8537V21C35.8537 22.3783 35.0876 23.5 34.1463 23.5C33.205 23.5 32.439 22.3783 32.439 21V11C32.439 9.62167 33.205 8.5 34.1463 8.5C35.0876 8.5 35.8537 9.62167 35.8537 11V12.25C35.8537 12.5815 35.9436 12.8995 36.1037 13.1339C36.2638 13.3683 36.4809 13.5 36.7073 13.5C36.9337 13.5 37.1509 13.3683 37.3109 13.1339C37.471 12.8995 37.561 12.5815 37.561 12.25V11C37.561 8.24333 36.0289 6 34.1463 6C32.2637 6 30.7317 8.24333 30.7317 11ZM13.6585 21C13.6585 22.3783 12.8925 23.5 11.9512 23.5C11.0099 23.5 10.2439 22.3783 10.2439 21V16C10.2439 14.6217 11.0099 13.5 11.9512 13.5C12.8925 13.5 13.6585 14.6217 13.6585 16V21ZM8.53658 16V21C8.53658 23.7567 10.0686 26 11.9512 26C13.8338 26 15.3659 23.7567 15.3659 21V16C15.3659 13.2433 13.8338 11 11.9512 11C10.0686 11 8.53658 13.2433 8.53658 16ZM22.1951 12.25V21C22.1951 22.3783 21.4291 23.5 20.4878 23.5C19.5465 23.5 18.7805 22.3783 18.7805 21V12.25C18.7805 11.9185 18.6905 11.6005 18.5305 11.3661C18.3704 11.1317 18.1532 11 17.9268 11C17.7004 11 17.4833 11.1317 17.3232 11.3661C17.1631 11.6005 17.0732 11.9185 17.0732 12.25V21C17.0732 23.7567 18.6052 26 20.4878 26C22.3704 26 23.9024 23.7567 23.9024 21V12.25C23.9024 11.9185 23.8125 11.6005 23.6524 11.3661C23.4923 11.1317 23.2752 11 23.0488 11C22.8224 11 22.6052 11.1317 22.4452 11.3661C22.2851 11.6005 22.1951 11.9185 22.1951 12.25ZM47.8049 16V24.75C47.8049 25.0815 47.8948 25.3995 48.0549 25.6339C48.215 25.8683 48.4321 26 48.6585 26C48.8849 26 49.1021 25.8683 49.2622 25.6339C49.4223 25.3995 49.5122 25.0815 49.5122 24.75V16C49.5122 14.6217 50.2782 13.5 51.2195 13.5C52.1608 13.5 52.9268 14.6217 52.9268 16V24.75C52.9268 25.0815 53.0168 25.3995 53.1769 25.6339C53.337 25.8683 53.5541 26 53.7805 26C54.0069 26 54.224 25.8683 54.3841 25.6339C54.5442 25.3995 54.6341 25.0815 54.6341 24.75V16C54.6341 13.2433 53.1021 11 51.2195 11C49.3369 11 47.8049 13.2433 47.8049 16ZM0 11C0 12.14 0.302764 13.2117 0.853659 14.0175L4.76854 19.75C4.99618 20.0833 5.12195 20.5275 5.12195 21C5.12195 22.3783 4.35594 23.5 3.41463 23.5C2.47333 23.5 1.70732 22.3783 1.70732 21V19.75C1.70732 19.4185 1.61738 19.1005 1.45729 18.8661C1.29719 18.6317 1.08006 18.5 0.853659 18.5C0.627254 18.5 0.410123 18.6317 0.250031 18.8661C0.0899388 19.1005 0 19.4185 0 19.75L0 21C0 23.7567 1.53203 26 3.41463 26C5.29724 26 6.82927 23.7567 6.82927 21C6.83028 20.4394 6.75536 19.884 6.60883 19.3661C6.4623 18.8481 6.24707 18.3778 5.97561 17.9825L2.06073 12.25C1.83309 11.9167 1.70732 11.4725 1.70732 11C1.70732 9.62167 2.47333 8.5 3.41463 8.5C4.35594 8.5 5.12195 9.62167 5.12195 11V12.25C5.12195 12.5815 5.21189 12.8995 5.37198 13.1339C5.53207 13.3683 5.74921 13.5 5.97561 13.5C6.20201 13.5 6.41915 13.3683 6.57924 13.1339C6.73933 12.8995 6.82927 12.5815 6.82927 12.25V11C6.82927 8.24333 5.29724 6 3.41463 6C1.53203 6 0 8.24333 0 11ZM56.3415 24.75C56.3415 25.4375 56.7256 26 57.1951 26C57.6646 26 58.0488 25.4375 58.0488 24.75C58.0488 24.0625 57.6646 23.5 57.1951 23.5C56.7256 23.5 56.3415 24.0625 56.3415 24.75ZM70 12.25C70 11.5625 69.6159 11 69.1463 11C68.6768 11 68.2927 11.5625 68.2927 12.25C68.2927 12.9375 68.6768 13.5 69.1463 13.5C69.6159 13.5 70 12.9375 70 12.25Z" fill="white" fill-opacity="0.88"/>
</svg>
