<svg width="124" height="36" viewBox="0 0 124 36" fill="none" xmlns="http://www.w3.org/2000/svg">
<path d="M112.5 22.125V24C112.5 25.654 111.154 27 109.5 27C107.846 27 106.5 25.654 106.5 24V18C106.5 16.346 107.846 15 109.5 15C111.154 15 112.5 16.346 112.5 18V22.125ZM103.5 18V24C103.5 27.308 106.192 30 109.5 30C110.648 30 111.718 29.67 112.631 29.108C112.77 29.422 113.013 29.6785 113.319 29.8347C113.625 29.9909 113.976 30.0373 114.312 29.9661C114.648 29.8949 114.949 29.7104 115.166 29.4435C115.382 29.1766 115.5 28.8435 115.5 28.5V18C115.5 14.692 112.808 12 109.5 12C106.192 12 103.5 14.692 103.5 18ZM120 18V28.5C120 28.8978 120.158 29.2794 120.439 29.5607C120.721 29.842 121.102 30 121.5 30C121.898 30 122.279 29.842 122.561 29.5607C122.842 29.2794 123 28.8978 123 28.5V18C123 17.6022 122.842 17.2206 122.561 16.9393C122.279 16.658 121.898 16.5 121.5 16.5C121.102 16.5 120.721 16.658 120.439 16.9393C120.158 17.2206 120 17.6022 120 18ZM78 19.5H72V18C72 16.346 73.346 15 75 15C76.654 15 78 16.346 78 18V19.5ZM69 18V24C69 27.308 71.692 30 75 30H79.5C79.8978 30 80.2794 29.842 80.5607 29.5607C80.842 29.2794 81 28.8978 81 28.5C81 28.1022 80.842 27.7206 80.5607 27.4393C80.2794 27.158 79.8978 27 79.5 27H75C73.346 27 72 25.654 72 24V22.5H79.5C79.8978 22.5 80.2794 22.342 80.5607 22.0607C80.842 21.7794 81 21.3978 81 21V18C81 14.692 78.308 12 75 12C71.692 12 69 14.692 69 18ZM46.5 7.5V28.5C46.5 28.8978 46.658 29.2794 46.9393 29.5607C47.2206 29.842 47.6022 30 48 30C48.3978 30 48.7794 29.842 49.0607 29.5607C49.342 29.2794 49.5 28.8978 49.5 28.5V7.5C49.5 7.10218 49.342 6.72064 49.0607 6.43934C48.7794 6.15804 48.3978 6 48 6C47.6022 6 47.2206 6.15804 46.9393 6.43934C46.658 6.72064 46.5 7.10218 46.5 7.5ZM54 12V24C54 27.308 56.692 30 60 30C63.308 30 66 27.308 66 24V21C66 20.6022 65.842 20.2206 65.5607 19.9393C65.2794 19.658 64.8978 19.5 64.5 19.5H61.5C61.1022 19.5 60.7206 19.658 60.4393 19.9393C60.158 20.2206 60 20.6022 60 21C60 21.3978 60.158 21.7794 60.4393 22.0607C60.7206 22.342 61.1022 22.5 61.5 22.5H63V24C63 25.654 61.654 27 60 27C58.346 27 57 25.654 57 24V12C57 10.346 58.346 9 60 9C61.654 9 63 10.346 63 12V13.5C63 13.8978 63.158 14.2794 63.4393 14.5607C63.7206 14.842 64.1022 15 64.5 15C64.8978 15 65.2794 14.842 65.5607 14.5607C65.842 14.2794 66 13.8978 66 13.5V12C66 8.692 63.308 6 60 6C56.692 6 54 8.692 54 12ZM24 24C24 25.654 22.654 27 21 27C19.346 27 18 25.654 18 24V18C18 16.346 19.346 15 21 15C22.654 15 24 16.346 24 18V24ZM15 18V24C15 27.308 17.692 30 21 30C24.308 30 27 27.308 27 24V18C27 14.692 24.308 12 21 12C17.692 12 15 14.692 15 18ZM39 13.5V24C39 25.654 37.654 27 36 27C34.346 27 33 25.654 33 24V13.5C33 13.1022 32.842 12.7206 32.5607 12.4393C32.2794 12.158 31.8978 12 31.5 12C31.1022 12 30.7206 12.158 30.4393 12.4393C30.158 12.7206 30 13.1022 30 13.5V24C30 27.308 32.692 30 36 30C39.308 30 42 27.308 42 24V13.5C42 13.1022 41.842 12.7206 41.5607 12.4393C41.2794 12.158 40.8978 12 40.5 12C40.1022 12 39.7206 12.158 39.4393 12.4393C39.158 12.7206 39 13.1022 39 13.5ZM84 18V28.5C84 28.8978 84.158 29.2794 84.4393 29.5607C84.7206 29.842 85.1022 30 85.5 30C85.8978 30 86.2794 29.842 86.5607 29.5607C86.842 29.2794 87 28.8978 87 28.5V18C87 16.346 88.346 15 90 15C91.654 15 93 16.346 93 18V28.5C93 28.8978 93.158 29.2794 93.4393 29.5607C93.7206 29.842 94.1022 30 94.5 30C94.8978 30 95.2794 29.842 95.5607 29.5607C95.842 29.2794 96 28.8978 96 28.5V18C96 14.692 93.308 12 90 12C86.692 12 84 14.692 84 18ZM0 12C0 13.368 0.532 14.654 1.5 15.621L8.379 22.5C8.779 22.9 9 23.433 9 24C9 25.654 7.654 27 6 27C4.346 27 3 25.654 3 24V22.5C3 22.1022 2.84196 21.7206 2.56066 21.4393C2.27936 21.158 1.89782 21 1.5 21C1.10218 21 0.720644 21.158 0.43934 21.4393C0.158035 21.7206 0 22.1022 0 22.5L0 24C0 27.308 2.692 30 6 30C9.308 30 12 27.308 12 24C12.0018 23.3272 11.8701 22.6608 11.6127 22.0393C11.3552 21.4177 10.977 20.8534 10.5 20.379L3.621 13.5C3.221 13.1 3 12.567 3 12C3 10.346 4.346 9 6 9C7.654 9 9 10.346 9 12V13.5C9 13.8978 9.15804 14.2794 9.43934 14.5607C9.72064 14.842 10.1022 15 10.5 15C10.8978 15 11.2794 14.842 11.5607 14.5607C11.842 14.2794 12 13.8978 12 13.5V12C12 8.692 9.308 6 6 6C2.692 6 0 8.692 0 12ZM99 28.5C99 29.325 99.675 30 100.5 30C101.325 30 102 29.325 102 28.5C102 27.675 101.325 27 100.5 27C99.675 27 99 27.675 99 28.5ZM123 13.5C123 12.675 122.325 12 121.5 12C120.675 12 120 12.675 120 13.5C120 14.325 120.675 15 121.5 15C122.325 15 123 14.325 123 13.5Z" fill="white" fill-opacity="0.88"/>
</svg>
