<svg width="40" height="40" viewBox="0 0 40 40" fill="none" xmlns="http://www.w3.org/2000/svg">
<g clip-path="url(#clip0_515_590)">
<path d="M24.1944 8.20312C26.315 8.20313 28.3487 9.04552 29.8482 10.545C31.3477 12.0445 32.1901 14.0782 32.1901 16.1988V24.1945C32.1901 26.315 31.3477 28.3488 29.8482 29.8482C28.3487 31.3477 26.315 32.1901 24.1944 32.1901H12.2009C11.1406 32.1901 10.1237 31.7689 9.374 31.0192C8.62426 30.2694 8.20306 29.2526 8.20306 28.1923V16.1988C8.20306 14.0782 9.04546 12.0445 10.5449 10.545C12.0444 9.04552 14.0781 8.20313 16.1987 8.20312H24.1944ZM16.1987 18.1977C15.6686 18.1977 15.1602 18.4083 14.7853 18.7832C14.4104 19.158 14.1998 19.6665 14.1998 20.1966C14.1998 20.7268 14.4104 21.2352 14.7853 21.6101C15.1602 21.9849 15.6686 22.1955 16.1987 22.1955C16.7289 22.1955 17.2373 21.9849 17.6122 21.6101C17.987 21.2352 18.1976 20.7268 18.1976 20.1966C18.1976 19.6665 17.987 19.158 17.6122 18.7832C17.2373 18.4083 16.7289 18.1977 16.1987 18.1977ZM24.1944 18.1977C23.6643 18.1977 23.1558 18.4083 22.7809 18.7832C22.4061 19.158 22.1955 19.6665 22.1955 20.1966C22.1955 20.7268 22.4061 21.2352 22.7809 21.6101C23.1558 21.9849 23.6643 22.1955 24.1944 22.1955C24.7245 22.1955 25.233 21.9849 25.6078 21.6101C25.9827 21.2352 26.1933 20.7268 26.1933 20.1966C26.1933 19.6665 25.9827 19.158 25.6078 18.7832C25.233 18.4083 24.7245 18.1977 24.1944 18.1977Z" fill="white" fill-opacity="0.95"/>
<rect width="41.0051" height="41.0051" rx="8" fill="#D9D9D9" fill-opacity="0.16"/>
</g>
<defs>
<clipPath id="clip0_515_590">
<rect width="39.99" height="39.99" fill="white"/>
</clipPath>
</defs>
</svg>
