<svg width="20" height="20" viewBox="0 0 20 20" fill="none" xmlns="http://www.w3.org/2000/svg">
<g clip-path="url(#clip0_509_660)">
<path d="M10 20C15.5228 20 20 15.5228 20 10C20 4.47715 15.5228 0 10 0C4.47715 0 0 4.47715 0 10C0 15.5228 4.47715 20 10 20Z" fill="white" fill-opacity="0.16"/>
<path d="M10 5.8671C7.767 5.8671 6.2 6.8251 6.2 6.8251C7.058 6.0581 8.558 5.6171 8.558 5.6171L8.417 5.4751C7.008 5.5001 5.733 6.4751 5.733 6.4751C4.3 9.4671 4.392 12.0501 4.392 12.0501C5.558 13.5581 7.292 13.4501 7.292 13.4501L7.883 12.7001C6.842 12.4751 6.183 11.5501 6.183 11.5501C6.183 11.5501 7.75 12.6171 10 12.6171C12.25 12.6171 13.817 11.5501 13.817 11.5501C13.817 11.5501 13.158 12.4751 12.117 12.7001L12.708 13.4501C12.708 13.4501 14.442 13.5581 15.608 12.0501C15.608 12.0501 15.7 9.4671 14.267 6.4751C14.267 6.4751 12.992 5.5001 11.583 5.4751L11.442 5.6171C11.442 5.6171 12.942 6.0581 13.8 6.8251C13.8 6.8251 12.233 5.8671 10 5.8671ZM8.275 9.0251C8.817 9.0251 9.258 9.5001 9.25 10.0831C9.25 10.6581 8.817 11.1421 8.275 11.1421C7.742 11.1421 7.308 10.6581 7.308 10.0831C7.308 9.5001 7.733 9.0251 8.275 9.0251ZM11.75 9.0251C12.292 9.0251 12.725 9.5001 12.725 10.0831C12.725 10.6581 12.292 11.1421 11.75 11.1421C11.217 11.1421 10.783 10.6581 10.783 10.0831C10.783 9.5001 11.208 9.0251 11.75 9.0251Z" fill="white" fill-opacity="0.88"/>
</g>
<defs>
<clipPath id="clip0_509_660">
<rect width="20" height="20" fill="white"/>
</clipPath>
</defs>
</svg>
