<svg width="96" height="104" viewBox="0 0 96 104" fill="none" xmlns="http://www.w3.org/2000/svg">
<path fill-rule="evenodd" clip-rule="evenodd" d="M69.333 10.667C78.17 10.667 85.333 17.83 85.333 26.667V69.333C85.333 78.17 78.17 85.333 69.333 85.333H26.667C17.83 85.333 10.667 78.17 10.667 69.333V26.667C10.667 17.83 17.83 10.667 26.667 10.667H69.333ZM61.333 30.667H34.667C33.6061 30.667 32.5887 31.0884 31.8386 31.8386C31.0884 32.5887 30.667 33.6061 30.667 34.667C30.667 35.7279 31.0884 36.7453 31.8386 37.4954C32.5887 38.2456 33.6061 38.667 34.667 38.667H44V61.333C44 62.3939 44.4214 63.4113 45.1716 64.1614C45.9217 64.9116 46.9391 65.333 48 65.333C49.0609 65.333 50.0783 64.9116 50.8284 64.1614C51.5786 63.4113 52 62.3939 52 61.333V38.667H61.333C62.3939 38.667 63.4113 38.2456 64.1614 37.4954C64.9116 36.7453 65.333 35.7279 65.333 34.667C65.333 33.6061 64.9116 32.5887 64.1614 31.8386C63.4113 31.0884 62.3939 30.667 61.333 30.667Z" fill="url(#paint0_linear_494_668)"/>
<path d="M44.0924 102.269C43.0677 102.544 41.9759 102.4 41.0572 101.87C40.1384 101.339 39.468 100.466 39.1935 99.4408C38.9189 98.4161 39.0626 97.3243 39.5931 96.4055C40.1235 95.4868 40.9972 94.8164 42.0219 94.5418L51.0378 92.126L45.1715 70.2323C44.8969 69.2076 45.0406 68.1158 45.5711 67.1971C46.1015 66.2783 46.9752 65.6079 47.9999 65.3334C49.0246 65.0588 50.1164 65.2025 51.0352 65.733C51.9539 66.2634 52.6243 67.1371 52.8989 68.1618L58.7653 90.0555L67.7802 87.6399C68.805 87.3653 69.8968 87.5091 70.8155 88.0395C71.7342 88.5699 72.4046 89.4436 72.6792 90.4683C72.9538 91.493 72.81 92.5849 72.2796 93.5036C71.7492 94.4223 70.8755 95.0927 69.8508 95.3673L44.0924 102.269Z" fill="url(#paint1_linear_494_668)"/>
<defs>
<linearGradient id="paint0_linear_494_668" x1="10.667" y1="10.667" x2="78" y2="85" gradientUnits="userSpaceOnUse">
<stop stop-color="#FF9D2E"/>
<stop offset="1" stop-color="#FF2A87"/>
</linearGradient>
<linearGradient id="paint1_linear_494_668" x1="-1600.57" y1="542.956" x2="-2497.8" y2="-2805.52" gradientUnits="userSpaceOnUse">
<stop stop-opacity="0"/>
<stop offset="1" stop-opacity="0.16"/>
</linearGradient>
</defs>
</svg>
