<svg width="96" height="96" viewBox="0 0 96 96" fill="none" xmlns="http://www.w3.org/2000/svg">
<path fill-rule="evenodd" clip-rule="evenodd" d="M80 13.333C85.891 13.333 90.667 18.109 90.667 24V61.333C90.667 67.224 85.89 72 80 72H58.667V77.333H61.333C62.0403 77.333 62.7187 77.614 63.2189 78.1142C63.719 78.6143 64 79.2927 64 80C64 80.7073 63.719 81.3857 63.2189 81.8859C62.7187 82.386 62.0403 82.667 61.333 82.667H34.667C33.9597 82.667 33.2813 82.386 32.7812 81.8859C32.281 81.3857 32 80.7073 32 80C32 79.2927 32.281 78.6143 32.7812 78.1142C33.2813 77.614 33.9597 77.333 34.667 77.333H37.333V72H16C10.109 72 5.33301 67.224 5.33301 61.333V24C5.33301 18.109 10.109 13.333 16 13.333H80ZM72 34.667H24C21.8783 34.667 19.8434 35.5099 18.3432 37.0102C16.8429 38.5104 16 40.5453 16 42.667C16 44.7887 16.8429 46.8236 18.3432 48.3239C19.8434 49.8242 21.8783 50.667 24 50.667H72C74.1217 50.667 76.1566 49.8242 77.6569 48.3239C79.1572 46.8236 80 44.7887 80 42.667C80 40.5453 79.1572 38.5104 77.6569 37.0102C76.1566 35.5099 74.1217 34.667 72 34.667ZM26.667 40C27.0215 39.9931 27.3738 40.057 27.7034 40.188C28.0329 40.3189 28.333 40.5142 28.5862 40.7625C28.8393 41.0108 29.0404 41.307 29.1777 41.634C29.3149 41.9609 29.3856 42.3119 29.3856 42.6665C29.3856 43.0211 29.3149 43.3721 29.1777 43.699C29.0404 44.026 28.8393 44.3222 28.5862 44.5705C28.333 44.8188 28.0329 45.0141 27.7034 45.1451C27.3738 45.276 27.0215 45.3399 26.667 45.333C25.9688 45.3195 25.3037 45.0326 24.8146 44.534C24.3256 44.0354 24.0516 43.3649 24.0516 42.6665C24.0516 41.9681 24.3256 41.2976 24.8146 40.799C25.3037 40.3004 25.9688 40.0135 26.667 40ZM37.333 40C37.6875 39.9931 38.0398 40.057 38.3694 40.188C38.6989 40.3189 38.999 40.5142 39.2522 40.7625C39.5053 41.0108 39.7064 41.307 39.8437 41.634C39.9809 41.9609 40.0516 42.3119 40.0516 42.6665C40.0516 43.0211 39.9809 43.3721 39.8437 43.699C39.7064 44.026 39.5053 44.3222 39.2522 44.5705C38.999 44.8188 38.6989 45.0141 38.3694 45.1451C38.0398 45.276 37.6875 45.3399 37.333 45.333C36.6348 45.3195 35.9697 45.0326 35.4806 44.534C34.9916 44.0354 34.7176 43.3649 34.7176 42.6665C34.7176 41.9681 34.9916 41.2976 35.4806 40.799C35.9697 40.3004 36.6348 40.0135 37.333 40ZM48 40C48.3545 39.9931 48.7068 40.057 49.0364 40.188C49.3659 40.3189 49.666 40.5142 49.9192 40.7625C50.1723 41.0108 50.3734 41.307 50.5107 41.634C50.6479 41.9609 50.7186 42.3119 50.7186 42.6665C50.7186 43.0211 50.6479 43.3721 50.5107 43.699C50.3734 44.026 50.1723 44.3222 49.9192 44.5705C49.666 44.8188 49.3659 45.0141 49.0364 45.1451C48.7068 45.276 48.3545 45.3399 48 45.333C47.3018 45.3195 46.6367 45.0326 46.1476 44.534C45.6586 44.0354 45.3846 43.3649 45.3846 42.6665C45.3846 41.9681 45.6586 41.2976 46.1476 40.799C46.6367 40.3004 47.3018 40.0135 48 40ZM58.667 40C59.0215 39.9931 59.3738 40.057 59.7034 40.188C60.0329 40.3189 60.333 40.5142 60.5862 40.7625C60.8393 41.0108 61.0404 41.307 61.1777 41.634C61.3149 41.9609 61.3856 42.3119 61.3856 42.6665C61.3856 43.0211 61.3149 43.3721 61.1777 43.699C61.0404 44.026 60.8393 44.3222 60.5862 44.5705C60.333 44.8188 60.0329 45.0141 59.7034 45.1451C59.3738 45.276 59.0215 45.3399 58.667 45.333C57.9688 45.3195 57.3037 45.0326 56.8146 44.534C56.3256 44.0354 56.0516 43.3649 56.0516 42.6665C56.0516 41.9681 56.3256 41.2976 56.8146 40.799C57.3037 40.3004 57.9688 40.0135 58.667 40ZM69.333 40C69.6875 39.9931 70.0398 40.057 70.3694 40.188C70.6989 40.3189 70.999 40.5142 71.2522 40.7625C71.5053 41.0108 71.7064 41.307 71.8437 41.634C71.9809 41.9609 72.0517 42.3119 72.0517 42.6665C72.0517 43.0211 71.9809 43.3721 71.8437 43.699C71.7064 44.026 71.5053 44.3222 71.2522 44.5705C70.999 44.8188 70.6989 45.0141 70.3694 45.1451C70.0398 45.276 69.6875 45.3399 69.333 45.333C68.6348 45.3195 67.9697 45.0326 67.4806 44.534C66.9916 44.0354 66.7177 43.3649 66.7177 42.6665C66.7177 41.9681 66.9916 41.2976 67.4806 40.799C67.9697 40.3004 68.6348 40.0135 69.333 40Z" fill="url(#paint0_linear_503_595)"/>
<path d="M33.136 55.5649C33.1351 55.5412 33.1392 55.5176 33.148 55.4956C33.1568 55.4736 33.1701 55.4536 33.187 55.4371C33.204 55.4205 33.2242 55.4076 33.2464 55.3993C33.2686 55.3911 33.2923 55.3875 33.316 55.3889H34.5C34.545 55.3889 34.587 55.4049 34.624 55.4369C34.6425 55.4528 34.6574 55.4724 34.6678 55.4945C34.6781 55.5165 34.6836 55.5405 34.684 55.5649V59.9169H36.884C36.9077 59.916 36.9313 59.9201 36.9533 59.9289C36.9754 59.9377 36.9953 59.951 37.0119 59.9679C37.0284 59.9849 37.0413 60.0051 37.0496 60.0273C37.0579 60.0495 37.0614 60.0732 37.06 60.0969V61.1489C37.06 61.1944 37.0437 61.2384 37.014 61.2729C36.998 61.2918 36.9781 61.3069 36.9556 61.3173C36.9332 61.3276 36.9087 61.333 36.884 61.3329H33.312C33.195 61.3329 33.136 61.2749 33.136 61.1569V55.5649ZM38.206 58.7969C38.2041 58.3271 38.3273 57.8653 38.563 57.4589C38.7903 57.0722 39.1133 56.7505 39.501 56.5249C39.9075 56.2918 40.3684 56.1703 40.837 56.1729C41.3516 56.169 41.8558 56.3181 42.2856 56.6012C42.7153 56.8843 43.0514 57.2886 43.251 57.7629C43.389 58.0819 43.457 58.4269 43.457 58.7969C43.4589 59.3718 43.2717 59.9314 42.9245 60.3896C42.5772 60.8478 42.089 61.1793 41.535 61.3329C41.3075 61.3949 41.0728 61.4258 40.837 61.4249C40.3684 61.4259 39.9077 61.3039 39.501 61.0709C39.1121 60.8451 38.7888 60.5218 38.563 60.1329C38.3282 59.7268 38.2057 59.266 38.206 58.7969ZM39.666 58.7969C39.666 58.9729 39.693 59.1379 39.747 59.2909C39.802 59.4449 39.879 59.5769 39.979 59.6889C40.085 59.8075 40.2156 59.9016 40.3618 59.9645C40.5079 60.0273 40.666 60.0575 40.825 60.0529C40.981 60.0569 41.136 60.0263 41.2788 59.9634C41.4216 59.9005 41.5487 59.8067 41.651 59.6889C41.749 59.5769 41.823 59.4449 41.875 59.2909C41.927 59.1379 41.953 58.9729 41.953 58.7969C41.953 58.6269 41.927 58.4639 41.875 58.3089C41.8263 58.1602 41.7503 58.0218 41.651 57.9009C41.5503 57.78 41.4239 57.6832 41.281 57.6175C41.1381 57.5517 40.9823 57.5187 40.825 57.5209C40.6647 57.5179 40.5057 57.5504 40.3594 57.6161C40.2131 57.6818 40.0832 57.779 39.979 57.9009C39.8772 58.0214 39.7985 58.1598 39.747 58.3089C39.692 58.4657 39.6653 58.6308 39.666 58.7969ZM48.466 61.1569C48.497 61.0566 48.5116 60.9519 48.509 60.8469C48.5077 60.7289 48.507 60.6109 48.507 60.4929C48.429 60.5759 48.351 60.6629 48.271 60.7549C48.1901 60.848 48.1011 60.9336 48.005 61.0109C47.905 61.0912 47.7938 61.1565 47.675 61.2049C47.5387 61.2582 47.3933 61.284 47.247 61.2809C46.9049 61.2844 46.5654 61.222 46.247 61.0969C45.95 60.9805 45.6793 60.8057 45.451 60.5829C45.224 60.3583 45.0456 60.0894 44.927 59.7929C44.7988 59.4711 44.7349 59.1273 44.739 58.7809C44.739 58.4159 44.801 58.0739 44.927 57.7549C45.052 57.4369 45.227 57.1589 45.451 56.9229C45.682 56.6796 45.9607 56.4867 46.2698 56.3563C46.5789 56.2258 46.9116 56.1607 47.247 56.1649C47.412 56.1649 47.561 56.1909 47.693 56.2409C47.825 56.2919 47.945 56.3569 48.053 56.4369C48.161 56.5169 48.259 56.6069 48.349 56.7069C48.438 56.8069 48.523 56.9069 48.603 57.0049L48.755 56.5289L48.799 56.4049C48.8106 56.3707 48.8282 56.3389 48.851 56.3109C48.8731 56.285 48.9013 56.2651 48.933 56.2529C48.9747 56.2382 49.0188 56.2314 49.063 56.2329H49.659C49.688 56.2329 49.722 56.2369 49.761 56.2449C49.7998 56.253 49.8353 56.2725 49.863 56.3009C49.9 56.3309 49.928 56.3629 49.947 56.3969C49.9671 56.4379 49.9767 56.4833 49.975 56.5289V60.6009C49.975 61.0169 49.907 61.3879 49.771 61.7129C49.6449 62.0237 49.4548 62.3044 49.213 62.5369C48.9722 62.7639 48.6868 62.9382 48.375 63.0489C47.8935 63.2215 47.3759 63.269 46.871 63.1869C46.7038 63.1611 46.5386 63.123 46.377 63.0729C46.213 63.0222 46.0537 62.9573 45.901 62.8789C45.7547 62.805 45.6183 62.7129 45.495 62.6049C45.4632 62.581 45.4349 62.5528 45.411 62.5209C45.3857 62.4873 45.3681 62.4486 45.3595 62.4075C45.3508 62.3663 45.3513 62.3238 45.361 62.2829C45.373 62.2303 45.3954 62.1807 45.427 62.1369L45.807 61.6129C45.876 61.5389 45.941 61.4989 46.003 61.4929C46.064 61.4879 46.141 61.5199 46.235 61.5889C46.3021 61.6532 46.38 61.7053 46.465 61.7429C46.6356 61.8197 46.8184 61.8657 47.005 61.8789C47.094 61.8859 47.175 61.8889 47.247 61.8889C47.5062 61.8874 47.761 61.8221 47.989 61.6989C48.102 61.6369 48.202 61.5599 48.289 61.4689C48.3738 61.3816 48.434 61.2743 48.466 61.1569ZM46.179 58.7809C46.179 58.9599 46.206 59.1259 46.261 59.2789C46.315 59.4329 46.393 59.5649 46.495 59.6769C46.596 59.7889 46.718 59.8769 46.861 59.9409C47.1671 60.0653 47.5093 60.0674 47.817 59.9469C48.1111 59.8322 48.3492 59.6077 48.481 59.3209C48.549 59.1769 48.587 59.0209 48.595 58.8529V58.7209C48.5877 58.5609 48.5489 58.4039 48.481 58.2589C48.3487 57.9674 48.1117 57.7361 47.817 57.6109C47.6659 57.5459 47.5031 57.5127 47.3386 57.5134C47.1741 57.5141 47.0115 57.5487 46.861 57.6149C46.718 57.6829 46.596 57.7749 46.495 57.8889C46.3913 58.007 46.3118 58.1442 46.261 58.2929C46.206 58.4497 46.1783 58.6147 46.179 58.7809ZM54.505 56.5649C54.505 56.4799 54.529 56.4069 54.577 56.3449C54.625 56.2839 54.7 56.2529 54.801 56.2529H55.717C55.749 56.2529 55.784 56.2609 55.821 56.2749C55.8591 56.2901 55.8943 56.3117 55.925 56.3389C55.957 56.3669 55.985 56.3999 56.007 56.4369C56.0301 56.4755 56.0419 56.5199 56.041 56.5649V61.0249C56.041 61.1269 56.013 61.2029 55.957 61.2549C55.901 61.3069 55.821 61.3329 55.717 61.3329H54.801C54.604 61.3329 54.505 61.2309 54.505 61.0249V56.5649ZM54.505 54.5409C54.505 54.4289 54.529 54.3499 54.577 54.3029C54.625 54.2569 54.7 54.2329 54.801 54.2329H55.729C55.823 54.2329 55.898 54.2569 55.955 54.3029C56.013 54.3499 56.041 54.4289 56.041 54.5409V55.3209C56.0402 55.3566 56.0328 55.3919 56.019 55.4249C56.0035 55.4636 55.9827 55.5 55.957 55.5329C55.9302 55.5677 55.8969 55.5969 55.859 55.6189C55.8196 55.6418 55.7746 55.6536 55.729 55.6529H54.801C54.604 55.6529 54.505 55.5429 54.505 55.3209V54.5409ZM57.639 56.3209C57.6703 56.2932 57.7082 56.274 57.749 56.2649C57.7852 56.2572 57.822 56.2532 57.859 56.2529H58.463C58.5058 56.252 58.5482 56.2609 58.587 56.2789C58.6207 56.2962 58.6506 56.32 58.675 56.3489C58.6995 56.379 58.719 56.4127 58.733 56.4489L58.775 56.5649L58.899 57.0769C58.939 56.9949 58.997 56.9009 59.073 56.7949C59.1552 56.683 59.2528 56.5834 59.363 56.4989C59.6426 56.2811 59.9886 56.166 60.343 56.1729C60.647 56.1729 60.923 56.2319 61.171 56.3489C61.419 56.4669 61.63 56.6269 61.805 56.8289C61.979 57.0319 62.115 57.2689 62.211 57.5389C62.307 57.8099 62.355 58.0989 62.355 58.4049V61.0249C62.355 61.1269 62.333 61.2029 62.289 61.2549C62.245 61.3069 62.175 61.3329 62.079 61.3329H61.155C61.04 61.3329 60.961 61.3139 60.919 61.2749C60.876 61.2369 60.855 61.1609 60.855 61.0489V58.4449C60.8553 58.3316 60.8286 58.2198 60.777 58.1189C60.6704 57.9128 60.4949 57.7507 60.281 57.6609C60.1767 57.6163 60.0645 57.5932 59.951 57.5929C59.8497 57.5941 59.7496 57.6158 59.657 57.6569C59.4504 57.7489 59.2792 57.9054 59.169 58.1029C59.1117 58.2055 59.0782 58.3196 59.071 58.4369V61.0369C59.0707 61.0834 59.0619 61.1295 59.045 61.1729C59.0303 61.2148 59.0031 61.2511 58.967 61.2769C58.906 61.3152 58.835 61.3347 58.763 61.3329H57.859C57.744 61.3329 57.661 61.3049 57.611 61.2489C57.5581 61.1866 57.5309 61.1065 57.535 61.0249V56.5499C57.535 56.4999 57.546 56.4529 57.569 56.4099C57.5905 56.3685 57.623 56.3339 57.663 56.3099L57.639 56.3209Z" fill="black"/>
<defs>
<linearGradient id="paint0_linear_503_595" x1="5" y1="13" x2="91" y2="75" gradientUnits="userSpaceOnUse">
<stop stop-color="#FF9D2E"/>
<stop offset="0.932292" stop-color="#FF3281"/>
<stop offset="1" stop-color="#FF2A87"/>
</linearGradient>
</defs>
</svg>
