<svg width="96" height="96" viewBox="0 0 96 96" fill="none" xmlns="http://www.w3.org/2000/svg">
<path fill-rule="evenodd" clip-rule="evenodd" d="M48 8C70.091 8 88 25.909 88 48C88 70.091 70.091 88 48 88C25.909 88 8 70.091 8 48C8 25.909 25.909 8 48 8ZM65.495 35.838C65.1236 35.4665 64.6826 35.1719 64.1973 34.9709C63.712 34.7698 63.1918 34.6664 62.6665 34.6664C62.1412 34.6664 61.621 34.7698 61.1357 34.9709C60.6504 35.1719 60.2094 35.4665 59.838 35.838L44 51.676L36.162 43.838C35.4118 43.0878 34.3944 42.6664 33.3335 42.6664C32.2726 42.6664 31.2552 43.0878 30.505 43.838C29.7548 44.5882 29.3334 45.6056 29.3334 46.6665C29.3334 47.1918 29.4369 47.712 29.6379 48.1973C29.8389 48.6826 30.1336 49.1236 30.505 49.495L41.172 60.162C41.9221 60.9119 42.9393 61.3331 44 61.3331C45.0607 61.3331 46.0779 60.9119 46.828 60.162L65.495 41.495C65.8665 41.1236 66.1611 40.6826 66.3621 40.1973C66.5632 39.712 66.6666 39.1918 66.6666 38.6665C66.6666 38.1412 66.5632 37.621 66.3621 37.1357C66.1611 36.6504 65.8665 36.2094 65.495 35.838Z" fill="url(#paint0_linear_494_672)"/>
<defs>
<linearGradient id="paint0_linear_494_672" x1="17" y1="18" x2="76" y2="88" gradientUnits="userSpaceOnUse">
<stop stop-color="#FF9D2E"/>
<stop offset="1" stop-color="#FF2A87"/>
</linearGradient>
</defs>
</svg>
