<svg width="24" height="24" viewBox="0 0 24 24" fill="none" xmlns="http://www.w3.org/2000/svg">
<g clip-path="url(#clip0_509_640)">
<path d="M12 24C18.6274 24 24 18.6274 24 12C24 5.37258 18.6274 0 12 0C5.37258 0 0 5.37258 0 12C0 18.6274 5.37258 24 12 24Z" fill="white" fill-opacity="0.12"/>
<path fill-rule="evenodd" clip-rule="evenodd" d="M11.95 8.8402C11.5267 8.8327 11.1061 8.90961 10.7128 9.06643C10.3195 9.22325 9.96136 9.45684 9.65932 9.75357C9.35729 10.0503 9.11739 10.4042 8.95363 10.7947C8.78987 11.1851 8.70553 11.6043 8.70553 12.0277C8.70553 12.4511 8.78987 12.8703 8.95363 13.2607C9.11739 13.6512 9.35729 14.0051 9.65932 14.3018C9.96136 14.5986 10.3195 14.8322 10.7128 14.989C11.1061 15.1458 11.5267 15.2227 11.95 15.2152C12.7856 15.2004 13.582 14.8581 14.1677 14.2619C14.7534 13.6657 15.0815 12.8634 15.0815 12.0277C15.0815 11.192 14.7534 10.3897 14.1677 9.79349C13.582 9.19733 12.7856 8.855 11.95 8.8402ZM11.95 14.1022C11.3998 14.1022 10.8721 13.8836 10.4831 13.4946C10.0941 13.1055 9.87549 12.5779 9.87549 12.0277C9.87549 11.4775 10.0941 10.9499 10.4831 10.5608C10.8721 10.1718 11.3998 9.9532 11.95 9.9532C12.5002 9.9532 13.0278 10.1718 13.4169 10.5608C13.8059 10.9499 14.0245 11.4775 14.0245 12.0277C14.0245 12.5779 13.8059 13.1055 13.4169 13.4946C13.0278 13.8836 12.5002 14.1022 11.95 14.1022ZM18.13 9.3222C18.134 8.86479 18.0468 8.41116 17.8736 7.9878C17.7004 7.56444 17.4445 7.17984 17.121 6.85643C16.7975 6.53303 16.4129 6.27731 15.9895 6.1042C15.5661 5.93109 15.1124 5.84406 14.655 5.8482C14.655 5.8482 13.28 5.8042 11.95 5.8042C10.62 5.8042 9.28999 5.8482 9.28999 5.8482C8.82775 5.84794 8.36998 5.93877 7.94286 6.11551C7.51574 6.29225 7.12764 6.55144 6.80074 6.87824C6.47384 7.20505 6.21455 7.59308 6.03769 8.02015C5.86082 8.44722 5.76986 8.90496 5.76999 9.3672C5.76999 9.3672 5.72699 10.6112 5.72699 11.8962C5.72699 13.2682 5.77099 14.6882 5.77099 14.6882C5.77086 15.1503 5.86176 15.6078 6.03849 16.0348C6.21523 16.4617 6.47434 16.8497 6.80103 17.1764C7.12772 17.5032 7.51559 17.7625 7.94248 17.9393C8.36937 18.1162 8.82691 18.2072 9.28899 18.2072C9.28899 18.2072 10.533 18.2512 11.818 18.2512C13.191 18.2512 14.655 18.2072 14.655 18.2072C15.1124 18.2112 15.566 18.124 15.9894 17.9508C16.4127 17.7776 16.7974 17.5218 17.1208 17.1983C17.4442 16.8748 17.6999 16.4901 17.873 16.0667C18.0461 15.6433 18.1331 15.1896 18.129 14.7322C18.129 14.7322 18.173 13.3282 18.173 11.9832C18.173 10.6682 18.129 9.3232 18.129 9.3232L18.13 9.3222ZM17.017 14.5172C17.017 16.1112 16.033 17.0942 14.44 17.0942C14.44 17.0942 12.968 17.1302 11.842 17.1302C10.788 17.1302 9.50399 17.0942 9.50399 17.0942C7.91099 17.0942 6.88299 16.0672 6.88299 14.4742C6.88299 14.4742 6.84699 13.0452 6.84699 11.9192C6.84699 10.8662 6.88299 9.5382 6.88299 9.5382C6.88299 7.9442 7.91099 6.9602 9.50399 6.9602C9.50399 6.9602 10.859 6.9242 11.95 6.9242C13.04 6.9242 14.44 6.9602 14.44 6.9602C16.033 6.9602 17.017 7.9442 17.017 9.5382C17.017 9.5382 17.053 10.9132 17.053 11.9912C17.053 13.0942 17.017 14.5172 17.017 14.5172ZM15.29 7.9552C15.1886 7.95546 15.0883 7.97569 14.9947 8.01473C14.9011 8.05377 14.8162 8.11085 14.7447 8.18273C14.6732 8.2546 14.6165 8.33985 14.578 8.43361C14.5394 8.52738 14.5197 8.62782 14.52 8.7292C14.52 9.1562 14.865 9.5032 15.29 9.5032C15.716 9.5032 16.06 9.1562 16.06 8.7292C16.0603 8.62782 16.0405 8.52738 16.002 8.43361C15.9634 8.33985 15.9068 8.2546 15.8353 8.18273C15.7638 8.11085 15.6788 8.05377 15.5853 8.01473C15.4917 7.97569 15.3914 7.95546 15.29 7.9552Z" fill="white" fill-opacity="0.88"/>
</g>
<defs>
<clipPath id="clip0_509_640">
<rect width="24" height="24" fill="white"/>
</clipPath>
</defs>
</svg>
