<svg width="20" height="20" viewBox="0 0 20 20" fill="none" xmlns="http://www.w3.org/2000/svg">
<g clip-path="url(#clip0_509_656)">
<path d="M10 20C15.5228 20 20 15.5228 20 10C20 4.47715 15.5228 0 10 0C4.47715 0 0 4.47715 0 10C0 15.5228 4.47715 20 10 20Z" fill="white" fill-opacity="0.16"/>
<path d="M14.167 5.83301C15.087 5.83301 15.833 6.58001 15.833 7.50001V12.5C15.833 13.42 15.087 14.167 14.167 14.167H5.83299C4.91299 14.167 4.16699 13.42 4.16699 12.5V7.50001C4.16699 6.58001 4.91299 5.83301 5.83299 5.83301H14.167ZM5.97999 7.94301C5.88666 7.90849 5.78405 7.90849 5.69072 7.94301C5.59738 7.97752 5.51947 8.04428 5.47105 8.13122C5.42263 8.21816 5.40689 8.31955 5.42669 8.41707C5.44649 8.5146 5.50051 8.60183 5.57899 8.66301L5.61899 8.69101L9.78599 11.191L9.85399 11.224C9.95516 11.2615 10.0669 11.2587 10.166 11.216L10.214 11.191L14.381 8.69101L14.441 8.64601C14.5154 8.57995 14.5637 8.48947 14.5773 8.39089C14.5908 8.29232 14.5687 8.19215 14.5148 8.10848C14.461 8.0248 14.379 7.96315 14.2836 7.93464C14.1883 7.90613 14.0859 7.91264 13.995 7.95301L13.952 7.97601L9.99999 10.348L6.04799 7.97601L5.97999 7.94301Z" fill="white" fill-opacity="0.88"/>
</g>
<defs>
<clipPath id="clip0_509_656">
<rect width="20" height="20" fill="white"/>
</clipPath>
</defs>
</svg>
