<svg width="20" height="20" viewBox="0 0 20 20" fill="none" xmlns="http://www.w3.org/2000/svg">
<g clip-path="url(#clip0_509_664)">
<path d="M10 20C15.5228 20 20 15.5228 20 10C20 4.47715 15.5228 0 10 0C4.47715 0 0 4.47715 0 10C0 15.5228 4.47715 20 10 20Z" fill="white" fill-opacity="0.16"/>
<path d="M14.2013 13.5676L15.8413 5.8336C15.9093 5.5056 15.8703 5.2716 15.7253 5.1306C15.5793 4.9886 15.3883 4.9626 15.1503 5.0516L5.50731 8.7686C5.29131 8.8506 5.14431 8.9436 5.06631 9.0476C4.98831 9.1516 4.97931 9.2506 5.03831 9.3436C5.09831 9.4366 5.21731 9.5086 5.39531 9.5606L7.86231 10.3306L13.5873 6.7266C13.7433 6.6216 13.8633 6.5996 13.9443 6.6596C13.9963 6.6966 13.9823 6.7526 13.9003 6.8266L9.26831 11.0116L9.08931 13.5566C9.26131 13.5566 9.42831 13.4746 9.59231 13.3106L10.7973 12.1506L13.2973 13.9916C13.7733 14.2596 14.0753 14.1186 14.2013 13.5676Z" fill="white" fill-opacity="0.88"/>
</g>
<defs>
<clipPath id="clip0_509_664">
<rect width="20" height="20" fill="white"/>
</clipPath>
</defs>
</svg>
