<svg width="24" height="24" viewBox="0 0 24 24" fill="none" xmlns="http://www.w3.org/2000/svg">
<g clip-path="url(#clip0_509_629)">
<path d="M12 24C18.6274 24 24 18.6274 24 12C24 5.37258 18.6274 0 12 0C5.37258 0 0 5.37258 0 12C0 18.6274 5.37258 24 12 24Z" fill="white" fill-opacity="0.12"/>
<path d="M14.719 10.32L15.004 10.465L14.719 10.291V10.32Z" fill="white"/>
<path d="M12.513 14.628C12.5194 14.5768 12.5194 14.5251 12.513 14.474V6.04997H14.223C14.223 5.96697 14.223 5.87997 14.193 5.79297H12.041V14.223C12.048 14.2721 12.048 14.3219 12.041 14.371C11.9886 14.6136 11.8862 14.8425 11.7403 15.0433C11.5943 15.244 11.4081 15.4121 11.1935 15.5367C10.9789 15.6613 10.7406 15.7398 10.494 15.767C10.2473 15.7943 9.99764 15.7697 9.761 15.695C9.99758 15.8744 10.2761 15.9904 10.5701 16.032C10.8642 16.0735 11.1639 16.0392 11.441 15.9323C11.718 15.8254 11.9631 15.6494 12.153 15.4212C12.3429 15.1929 12.4713 14.9198 12.526 14.628H12.513ZM7.059 15.596C6.88 15.1177 6.79972 14.6081 6.823 14.098C6.85471 13.2732 7.14465 12.4792 7.65189 11.8281C8.15913 11.1769 8.85805 10.7015 9.65 10.469C9.866 10.398 10.09 10.348 10.316 10.32V10.055C9.9308 10.0476 9.54681 10.1006 9.178 10.212C8.66269 10.3654 8.18415 10.6224 7.77172 10.9674C7.35928 11.3123 7.02165 11.7378 6.77952 12.2179C6.53739 12.6979 6.39586 13.2224 6.36361 13.7591C6.33137 14.2958 6.40909 14.8334 6.592 15.339C6.78 15.8433 7.06672 16.3051 7.43538 16.6973C7.80404 17.0895 8.24723 17.4042 8.739 17.623C7.96787 17.1544 7.37629 16.4407 7.059 15.596ZM17.185 8.76397C16.8158 8.76265 16.4504 8.68963 16.109 8.54897C16.436 8.75897 16.802 8.89897 17.185 8.96297V8.76397Z" fill="white" fill-opacity="0.24"/>
<path d="M15.108 7.87892C15.3948 8.16535 15.7349 8.39295 16.109 8.54892C15.9237 8.4279 15.7506 8.28925 15.592 8.13492C15.0481 7.57935 14.7284 6.84263 14.694 6.06592H14.239C14.312 6.75192 14.619 7.39192 15.108 7.87892ZM17.185 8.97492V10.9529C16.4306 10.9629 15.6843 10.7972 15.005 10.4689C15.806 10.9589 16.729 11.2169 17.669 11.2139V9.01992C17.5067 9.01728 17.3449 9.0019 17.185 8.97392V8.97492ZM14.235 10.2209V14.0029C14.2322 14.9388 13.8984 15.8436 13.2926 16.557C12.6868 17.2705 11.8481 17.7465 10.925 17.9009C10.1822 18.0249 9.41938 17.9283 8.731 17.6229C9.529 18.1199 10.481 18.3099 11.408 18.1569C12.3314 18.0016 13.1702 17.5248 13.776 16.8107C14.3817 16.0966 14.7154 15.1913 14.718 14.2549V10.3199C14.5533 10.2303 14.3919 10.1349 14.234 10.0339L14.235 10.2209ZM9.98 12.2359C9.2 12.3639 8.6 12.9939 8.51 13.7789C8.4646 14.1924 8.56287 14.609 8.78831 14.9586C9.01374 15.3082 9.3526 15.5696 9.748 15.6989C9.45854 15.4982 9.2355 15.2158 9.10738 14.8877C8.97926 14.5596 8.95188 14.2008 9.02874 13.857C9.10561 13.5133 9.28322 13.2003 9.53888 12.958C9.79454 12.7157 10.1166 12.5552 10.464 12.4969C10.571 12.4969 10.679 12.4669 10.787 12.4509V10.2989C10.625 10.2954 10.463 10.3024 10.302 10.3199V12.1939C10.195 12.2069 10.087 12.2149 9.98 12.2359Z" fill="white" fill-opacity="0.12"/>
<path d="M17.185 10.953V8.97501C16.8018 8.91206 16.4356 8.77115 16.109 8.56101C15.7348 8.40509 15.3948 8.17748 15.108 7.89101C14.615 7.40044 14.3075 6.75401 14.238 6.06201H12.53V14.487C12.5363 14.5378 12.5363 14.5892 12.53 14.64C12.4754 14.9318 12.3471 15.2048 12.1573 15.433C11.9675 15.6613 11.7225 15.8373 11.4456 15.9443C11.1687 16.0513 10.8691 16.0857 10.5751 16.0444C10.2812 16.003 10.0026 15.8872 9.766 15.708C9.69602 15.6864 9.62809 15.6586 9.563 15.625C9.21544 15.4676 8.9266 15.2042 8.73781 14.8726C8.54903 14.5411 8.46999 14.1582 8.512 13.779C8.55641 13.3979 8.72368 13.0416 8.98852 12.7639C9.25337 12.4863 9.60139 12.3024 9.98 12.24C10.087 12.22 10.195 12.211 10.302 12.199V10.32C10.0805 10.3447 9.86178 10.3905 9.649 10.457C8.85532 10.6902 8.15516 11.1672 7.64776 11.8205C7.14035 12.4739 6.85145 13.2703 6.822 14.097C6.799 14.608 6.879 15.117 7.058 15.596C7.36884 16.437 7.95122 17.1502 8.713 17.623C9.40144 17.9281 10.1642 18.0248 10.907 17.901C11.8301 17.7466 12.6688 17.2705 13.2746 16.5571C13.8804 15.8437 14.2142 14.9389 14.217 14.003V10.055C14.38 10.16 14.541 10.255 14.701 10.341V10.311L14.987 10.486C15.6728 10.811 16.4263 10.971 17.185 10.953Z" fill="white" fill-opacity="0.88"/>
</g>
<defs>
<clipPath id="clip0_509_629">
<rect width="24" height="24" fill="white"/>
</clipPath>
</defs>
</svg>
