<svg width="24" height="24" viewBox="0 0 24 24" fill="none" xmlns="http://www.w3.org/2000/svg">
<g clip-path="url(#clip0_509_648)">
<path d="M12 24C18.6274 24 24 18.6274 24 12C24 5.37258 18.6274 0 12 0C5.37258 0 0 5.37258 0 12C0 18.6274 5.37258 24 12 24Z" fill="white" fill-opacity="0.12"/>
<path fill-rule="evenodd" clip-rule="evenodd" d="M17.769 9.04594C17.777 9.17094 17.777 9.30294 17.777 9.43094C17.777 13.3629 14.782 17.8929 9.309 17.8929C7.68922 17.896 6.10276 17.4329 4.739 16.5589C4.979 16.5859 5.209 16.5959 5.456 16.5959C6.79525 16.599 8.09665 16.1517 9.151 15.3259C8.53029 15.3152 7.92848 15.1107 7.4298 14.7409C6.93113 14.3712 6.56057 13.8548 6.37 13.2639C6.828 13.3309 7.24 13.3309 7.712 13.2109C7.03873 13.0744 6.43353 12.7089 5.99928 12.1765C5.56503 11.6442 5.32854 10.9779 5.33 10.2909V10.2539C5.724 10.4759 6.188 10.6129 6.673 10.6309C6.04196 10.2104 5.59518 9.56496 5.42384 8.82626C5.25249 8.08755 5.36951 7.31131 5.751 6.65594C6.49825 7.57566 7.43065 8.32786 8.48761 8.86367C9.54458 9.39947 10.7025 9.70689 11.886 9.76594C11.466 7.74394 12.976 6.10694 14.792 6.10694C15.1992 6.10599 15.6022 6.18877 15.976 6.35013C16.3498 6.51149 16.6864 6.74799 16.965 7.04494C17.6313 6.91708 18.2704 6.67483 18.854 6.32894C18.6321 7.0158 18.167 7.59794 17.546 7.96594C18.146 7.90194 18.726 7.73594 19.261 7.50294C18.8566 8.09965 18.3518 8.62172 17.769 9.04594Z" fill="white" fill-opacity="0.88"/>
</g>
<defs>
<clipPath id="clip0_509_648">
<rect width="24" height="24" fill="white"/>
</clipPath>
</defs>
</svg>
