<svg width="24" height="24" viewBox="0 0 24 24" fill="none" xmlns="http://www.w3.org/2000/svg">
<g clip-path="url(#clip0_509_652)">
<path opacity="0.12" d="M12 24C18.6274 24 24 18.6274 24 12C24 5.37258 18.6274 0 12 0C5.37258 0 0 5.37258 0 12C0 18.6274 5.37258 24 12 24Z" fill="white"/>
<path fill-rule="evenodd" clip-rule="evenodd" d="M16.908 7.38005C17.845 7.48805 18.061 8.00505 18.336 8.94005C18.336 8.94005 18.588 10.513 18.588 12.036C18.588 13.464 18.336 14.856 18.336 14.856C18.084 15.793 17.773 16.248 16.908 16.416C16.908 16.416 14.817 16.573 12.566 16.584H12.324C9.74399 16.584 7.03199 16.416 7.03199 16.416C6.15599 16.308 5.74799 15.732 5.55699 14.856C5.55699 14.856 5.30499 13.344 5.30499 11.844C5.30499 10.392 5.55699 8.94105 5.55699 8.94105C5.80899 8.04105 6.04799 7.48805 7.03099 7.38005C7.03099 7.38005 9.30799 7.25705 11.682 7.24805H11.928C14.413 7.24805 16.908 7.38005 16.908 7.38005ZM10.534 9.33305V14.303L14.374 11.819L10.534 9.33305Z" fill="white" fill-opacity="0.88"/>
</g>
<defs>
<clipPath id="clip0_509_652">
<rect width="24" height="24" fill="white"/>
</clipPath>
</defs>
</svg>
